<svg xmlns="http://www.w3.org/2000/svg" width="297.4" height="58.759" viewBox="-2 -2 297.4 58.759"><g id="svgGroup" stroke-linecap="round" fill-rule="nonzero" font-size="9pt" stroke="currentColor" stroke-width="0.5" fill="currentColor" style="stroke:currentColor;fill:currentColor"><path d="M 206.85 46.801 L 186.075 46.801 Q 185.25 46.801 185.25 47.626 L 185.25 49.501 Q 185.25 50.326 186.075 50.326 L 207.525 50.326 Q 208.5 50.326 208.5 51.226 L 208.5 53.776 Q 208.5 54.751 207.525 54.751 L 179.025 54.751 Q 178.125 54.751 177.3 54.076 L 170.475 47.476 Q 169.8 46.801 169.8 45.901 L 169.8 9.151 Q 169.8 8.551 170.213 8.138 Q 170.625 7.726 171.225 7.726 L 206.85 7.726 Q 207.525 7.726 208.013 8.251 Q 208.5 8.776 208.5 9.451 L 208.5 45.226 Q 208.5 45.901 208.013 46.351 Q 207.525 46.801 206.85 46.801 Z M 190.875 19.501 L 190.875 35.101 Q 190.875 36.301 192.075 36.301 L 196.2 36.301 Q 197.475 36.301 197.475 35.101 L 197.475 19.501 Q 197.475 18.976 197.138 18.601 Q 196.8 18.226 196.2 18.226 L 192.075 18.226 Q 191.55 18.226 191.213 18.601 Q 190.875 18.976 190.875 19.501 Z M 19.65 46.801 L 16.275 46.801 Q 15.45 46.801 15.45 47.626 L 15.45 49.501 Q 15.45 50.326 16.275 50.326 L 37.275 50.326 Q 37.875 50.326 38.288 50.738 Q 38.7 51.151 38.7 51.751 L 38.7 53.251 Q 38.7 53.851 38.288 54.301 Q 37.875 54.751 37.275 54.751 L 8.625 54.751 L 8.625 54.676 Q 8.325 54.526 8.025 54.413 Q 7.725 54.301 7.5 54.076 L 0.675 47.476 Q 0 46.801 0 45.901 L 0 9.151 Q 0 8.551 0.413 8.138 Q 0.825 7.726 1.425 7.726 L 37.05 7.726 Q 37.725 7.726 38.213 8.213 Q 38.7 8.701 38.7 9.451 L 38.7 16.576 Q 38.7 17.251 38.213 17.738 Q 37.725 18.226 37.05 18.226 L 22.125 18.226 Q 21.675 18.226 21.375 18.563 Q 21.075 18.901 21.075 19.351 L 21.075 45.451 Q 21.075 46.051 20.663 46.426 Q 20.25 46.801 19.65 46.801 Z M 114.3 41.626 L 121.95 41.626 Q 122.625 41.626 123.113 42.113 Q 123.6 42.601 123.6 43.276 L 123.6 53.176 Q 123.6 53.851 123.15 54.301 Q 122.7 54.751 122.1 54.751 L 94.125 54.751 Q 93.225 54.751 92.4 54.076 L 85.575 47.476 Q 84.9 46.801 84.9 45.901 L 84.9 1.351 Q 84.9 0.751 85.313 0.376 Q 85.725 0.001 86.325 0.001 L 104.475 0.001 Q 105.075 0.001 105.525 0.376 Q 105.975 0.751 105.975 1.351 L 105.975 45.451 Q 105.975 46.051 105.563 46.426 Q 105.15 46.801 104.55 46.801 L 101.175 46.801 Q 100.35 46.801 100.35 47.626 L 100.35 49.501 Q 100.35 50.326 101.175 50.326 L 111.225 50.326 Q 111.825 50.326 112.2 49.951 Q 112.575 49.576 112.575 48.976 L 112.575 43.351 Q 112.575 42.601 113.063 42.113 Q 113.55 41.626 114.3 41.626 Z M 213.675 7.726 L 249.3 7.726 Q 249.975 7.726 250.463 8.213 Q 250.95 8.701 250.95 9.376 L 250.95 22.576 Q 250.95 23.251 250.463 23.738 Q 249.975 24.226 249.3 24.226 L 241.5 24.226 Q 240.9 24.226 240.413 23.738 Q 239.925 23.251 239.925 22.651 L 239.925 19.351 Q 239.925 18.901 239.625 18.563 Q 239.325 18.226 238.8 18.226 L 228.525 18.226 Q 227.7 18.226 227.7 19.051 L 227.7 20.926 Q 227.7 21.676 228.525 21.676 L 232.05 21.676 Q 232.575 21.676 232.95 22.051 Q 233.325 22.426 233.325 22.951 L 233.325 53.401 Q 233.325 54.001 232.913 54.376 Q 232.5 54.751 231.9 54.751 L 221.475 54.751 Q 220.575 54.751 219.75 54.076 L 212.925 47.476 Q 212.25 46.801 212.25 45.901 L 212.25 9.151 Q 212.25 8.551 212.663 8.138 Q 213.075 7.726 213.675 7.726 Z M 156.6 0.001 L 164.4 0.001 Q 165.075 0.001 165.563 0.451 Q 166.05 0.901 166.05 1.576 L 166.05 53.101 Q 166.05 53.776 165.563 54.263 Q 165.075 54.751 164.4 54.751 L 136.575 54.751 Q 135.675 54.751 134.85 54.076 L 128.025 47.476 Q 127.35 46.801 127.35 45.901 L 127.35 9.376 Q 127.35 8.701 127.838 8.213 Q 128.325 7.726 128.925 7.726 L 154.05 7.726 Q 155.025 7.726 155.025 6.751 L 155.025 1.576 Q 155.025 0.901 155.513 0.451 Q 156 0.001 156.6 0.001 Z M 148.425 22.801 L 148.425 48.751 Q 148.425 49.351 148.875 49.838 Q 149.325 50.326 149.925 50.326 L 153.525 50.326 Q 154.125 50.326 154.575 49.838 Q 155.025 49.351 155.025 48.751 L 155.025 18.226 L 143.625 18.226 Q 142.8 18.226 142.8 19.051 L 142.8 20.926 Q 142.8 21.676 143.625 21.676 L 147.375 21.676 Q 147.75 21.676 148.088 22.013 Q 148.425 22.351 148.425 22.801 Z M 43.875 7.726 L 79.5 7.726 Q 80.175 7.726 80.663 8.213 Q 81.15 8.701 81.15 9.376 L 81.15 53.101 Q 81.15 53.776 80.663 54.263 Q 80.175 54.751 79.5 54.751 L 71.775 54.751 Q 71.1 54.751 70.613 54.263 Q 70.125 53.776 70.125 53.101 L 70.125 49.951 L 65.7 54.451 Q 65.25 54.751 64.95 54.751 L 51.675 54.751 Q 50.775 54.751 49.95 54.076 L 43.125 47.476 Q 42.45 46.876 42.45 45.901 L 42.45 9.151 Q 42.45 8.551 42.863 8.138 Q 43.275 7.726 43.875 7.726 Z M 70.125 42.601 L 70.125 19.576 Q 70.125 18.976 69.75 18.601 Q 69.375 18.226 68.775 18.226 L 64.8 18.226 Q 64.275 18.226 63.9 18.601 Q 63.525 18.976 63.525 19.576 L 63.525 45.451 Q 63.525 46.051 63.113 46.426 Q 62.7 46.801 62.1 46.801 L 58.725 46.801 Q 57.825 46.801 57.825 47.626 L 57.825 49.501 Q 57.825 50.251 58.725 50.251 L 63.15 50.251 Q 63.525 50.251 63.825 50.026 L 69.375 44.476 Q 70.125 43.576 70.125 42.601 Z M 256.125 7.726 L 291.75 7.726 Q 292.425 7.726 292.913 8.213 Q 293.4 8.701 293.4 9.376 L 293.4 53.101 Q 293.4 53.776 292.913 54.263 Q 292.425 54.751 291.75 54.751 L 284.025 54.751 Q 283.35 54.751 282.863 54.263 Q 282.375 53.776 282.375 53.101 L 282.375 49.951 L 277.95 54.451 Q 277.5 54.751 277.2 54.751 L 263.925 54.751 Q 263.025 54.751 262.2 54.076 L 255.375 47.476 Q 254.7 46.876 254.7 45.901 L 254.7 9.151 Q 254.7 8.551 255.113 8.138 Q 255.525 7.726 256.125 7.726 Z M 282.375 42.601 L 282.375 19.576 Q 282.375 18.976 282 18.601 Q 281.625 18.226 281.025 18.226 L 277.05 18.226 Q 276.525 18.226 276.15 18.601 Q 275.775 18.976 275.775 19.576 L 275.775 45.451 Q 275.775 46.051 275.363 46.426 Q 274.95 46.801 274.35 46.801 L 270.975 46.801 Q 270.075 46.801 270.075 47.626 L 270.075 49.501 Q 270.075 50.251 270.975 50.251 L 275.4 50.251 Q 275.775 50.251 276.075 50.026 L 281.625 44.476 Q 282.375 43.576 282.375 42.601 Z"/></g></svg>
